<?xml version="1.0" encoding="iso-8859-1"?>
<!-- Uploaded to: SVG Repo, www.svgrepo.com, Generator: SVG Repo Mixer Tools -->
<svg fill="#000000" height="800px" width="800px" version="1.1" id="Layer_1" xmlns="http://www.w3.org/2000/svg" xmlns:xlink="http://www.w3.org/1999/xlink" 
	 viewBox="0 0 512 512" xml:space="preserve">
<g transform="translate(1 1)">
	<g>
		<g>
			<path d="M502.467,378.733h-8.533v-281.6c0-14.507-11.093-25.6-25.6-25.6H41.667c-14.507,0-25.6,11.093-25.6,25.6v281.6H7.533
				c-5.12,0-8.533,3.413-8.533,8.533v25.6c0,14.507,11.093,25.6,25.6,25.6h460.8c14.507,0,25.6-11.093,25.6-25.6v-25.6
				C511,382.147,507.587,378.733,502.467,378.733z M33.133,97.133c0-5.12,3.413-8.533,8.533-8.533h426.667
				c5.12,0,8.533,3.413,8.533,8.533v281.6h-153.6c-5.12,0-8.533,3.413-8.533,8.533v8.533H195.267v-8.533
				c0-5.12-3.413-8.533-8.533-8.533h-153.6V97.133z M493.933,412.867c0,5.12-3.413,8.533-8.533,8.533H24.6
				c-5.12,0-8.533-3.413-8.533-8.533V395.8H24.6h153.6v8.533c0,5.12,3.413,8.533,8.533,8.533h136.533
				c5.12,0,8.533-3.413,8.533-8.533V395.8h153.6h8.533V412.867z"/>
			<path d="M278.893,318.147c4.267-1.707,5.973-6.827,4.267-11.093l-36.693-75.093v-83.627c0-5.12-3.413-8.533-8.533-8.533
				c-52.053,0-93.867,41.813-93.867,93.867s41.813,93.867,93.867,93.867C252.44,327.533,266.093,324.12,278.893,318.147z
				 M161.133,233.667c0-39.253,29.867-71.68,68.267-75.947v75.947c0,1.707,0,2.56,0.853,3.413l33.28,69.12
				c-8.533,2.56-17.067,4.267-25.6,4.267C195.267,310.467,161.133,276.333,161.133,233.667z"/>
			<path d="M298.52,296.813c1.707,3.413,4.267,5.12,7.68,5.12h2.56c1.707,0,2.56,0,4.267-0.853
				c32.427-16.213,52.907-47.787,52.907-84.48c0-52.053-41.813-93.867-93.867-93.867c-5.12,0-8.533,3.413-8.533,8.533v93.867
				c0,1.707,0,2.56,0.853,3.413L298.52,296.813z M280.6,140.653c38.4,4.267,68.267,36.693,68.267,75.947
				c0,28.16-14.507,52.907-38.4,66.56L280.6,223.427V140.653z"/>
			<path d="M101.4,131.267h42.667c5.12,0,8.533-3.413,8.533-8.533s-3.413-8.533-8.533-8.533H101.4c-5.12,0-8.533,3.413-8.533,8.533
				S96.28,131.267,101.4,131.267z"/>
			<path d="M58.733,131.267h8.533c5.12,0,8.533-3.413,8.533-8.533s-3.413-8.533-8.533-8.533h-8.533c-5.12,0-8.533,3.413-8.533,8.533
				S53.613,131.267,58.733,131.267z"/>
			<path d="M58.733,165.4h34.133c5.12,0,8.533-3.413,8.533-8.533c0-5.12-3.413-8.533-8.533-8.533H58.733
				c-5.12,0-8.533,3.413-8.533,8.533C50.2,161.987,53.613,165.4,58.733,165.4z"/>
			<path d="M152.6,156.867c0-5.12-3.413-8.533-8.533-8.533H127c-5.12,0-8.533,3.413-8.533,8.533c0,5.12,3.413,8.533,8.533,8.533
				h17.067C149.187,165.4,152.6,161.987,152.6,156.867z"/>
			<path d="M451.267,301.933H408.6c-5.12,0-8.533,3.413-8.533,8.533S403.48,319,408.6,319h42.667c5.12,0,8.533-3.413,8.533-8.533
				S456.387,301.933,451.267,301.933z"/>
			<path d="M357.4,310.467c0,5.12,3.413,8.533,8.533,8.533h8.533c5.12,0,8.533-3.413,8.533-8.533s-3.413-8.533-8.533-8.533h-8.533
				C360.813,301.933,357.4,305.347,357.4,310.467z"/>
			<path d="M400.067,336.067h-34.133c-5.12,0-8.533,3.413-8.533,8.533c0,5.12,3.413,8.533,8.533,8.533h34.133
				c5.12,0,8.533-3.413,8.533-8.533C408.6,339.48,405.187,336.067,400.067,336.067z"/>
			<path d="M451.267,336.067H434.2c-5.12,0-8.533,3.413-8.533,8.533c0,5.12,3.413,8.533,8.533,8.533h17.067
				c5.12,0,8.533-3.413,8.533-8.533C459.8,339.48,456.387,336.067,451.267,336.067z"/>
			<path d="M400.067,156.867h17.067v17.067c0,5.12,3.413,8.533,8.533,8.533s8.533-3.413,8.533-8.533v-17.067h17.067
				c5.12,0,8.533-3.413,8.533-8.533s-3.413-8.533-8.533-8.533H434.2v-17.067c0-5.12-3.413-8.533-8.533-8.533
				s-8.533,3.413-8.533,8.533V139.8h-17.067c-5.12,0-8.533,3.413-8.533,8.533S394.947,156.867,400.067,156.867z"/>
			<path d="M115.907,287.427c-3.413-3.413-8.533-3.413-11.947,0l-19.627,19.627l-19.627-19.627c-3.413-3.413-8.533-3.413-11.947,0
				s-3.413,8.533,0,11.947L72.387,319L52.76,338.627c-3.413,3.413-3.413,8.533,0,11.947c1.707,1.707,3.413,2.56,5.973,2.56
				s4.267-0.853,5.973-2.56l19.627-19.627l19.627,19.627c1.707,1.707,3.413,2.56,5.973,2.56s4.267-0.853,5.973-2.56
				c3.413-3.413,3.413-8.533,0-11.947L96.28,319l19.627-19.627C119.32,295.96,119.32,290.84,115.907,287.427z"/>
		</g>
	</g>
</g>
</svg>